<?xml version="1.0" standalone="no"?>
<!DOCTYPE svg PUBLIC "-//W3C//DTD SVG 20010904//EN"
 "http://www.w3.org/TR/2001/REC-SVG-20010904/DTD/svg10.dtd">
<svg version="1.0" xmlns="http://www.w3.org/2000/svg"
 width="536.000000pt" height="631.000000pt" viewBox="0 0 536.000000 631.000000"
 preserveAspectRatio="xMidYMid meet">
<metadata>
Created by potrace 1.16, written by Peter Selinger 2001-2019
</metadata>
<g transform="translate(0.000000,631.000000) scale(0.100000,-0.100000)"
fill="#000000" stroke="none">
<path d="M3317 5896 c-38 -14 -56 -27 -161 -113 -49 -40 -71 -68 -123 -163
-78 -143 -110 -224 -168 -431 -83 -294 -154 -753 -180 -1164 l-7 -100 -248 3
-249 4 -95 -46 c-52 -25 -112 -63 -133 -83 -219 -217 -363 -502 -428 -847 -36
-193 35 -260 392 -365 94 -28 242 -67 328 -86 87 -19 164 -40 173 -47 35 -29
263 -423 277 -479 6 -25 2 -29 -62 -58 -100 -47 -305 -186 -329 -224 -96 -150
-91 -293 13 -373 128 -98 528 -140 1251 -131 446 5 493 9 665 57 39 11 87 20
105 20 28 0 44 11 110 80 l77 81 60 -12 c73 -14 180 -7 265 17 69 19 99 44
197 162 93 112 118 228 74 343 -26 67 -86 139 -145 174 -55 32 -184 65 -255
65 l-56 0 -24 68 c-47 131 -97 239 -155 327 -69 106 -172 248 -236 324 -96
115 -414 381 -496 416 -19 8 -81 42 -137 76 -56 35 -135 77 -175 94 l-73 32
57 52 c31 29 73 60 93 71 20 10 77 51 126 91 50 39 128 99 175 132 47 33 101
74 121 92 20 18 72 57 115 86 516 347 866 715 866 911 0 38 -9 69 -41 133 -50
101 -136 187 -238 237 -66 32 -71 33 -193 33 -124 0 -125 0 -187 -35 -147 -84
-329 -261 -517 -503 -148 -189 -253 -344 -326 -477 -65 -119 -171 -292 -176
-287 -5 5 88 362 121 467 41 129 135 410 220 655 158 454 167 491 140 561 -23
61 -110 149 -161 163 -54 15 -201 13 -247 -3z m-673 -2146 c98 -12 288 -70
339 -104 29 -20 32 -27 37 -86 3 -36 11 -75 18 -87 23 -41 77 -73 142 -84 101
-16 311 -103 421 -174 204 -132 460 -355 569 -495 32 -42 66 -82 75 -90 26
-22 81 -112 156 -255 100 -192 103 -207 91 -372 -12 -155 -44 -318 -75 -378
-11 -22 -49 -70 -85 -107 -77 -80 -116 -97 -277 -125 -97 -16 -167 -18 -580
-17 -468 1 -678 10 -890 40 -139 20 -159 29 -163 73 -5 48 14 86 67 132 59 53
217 147 274 164 81 24 197 77 206 93 13 23 -11 64 -124 217 -74 101 -118 175
-197 333 -83 168 -106 206 -131 219 -19 9 -76 19 -145 24 -63 5 -131 11 -151
15 -70 12 -237 56 -281 74 -25 10 -77 28 -117 39 -89 26 -133 61 -133 104 0
18 16 92 35 166 56 215 199 481 308 573 85 72 113 90 164 104 59 16 322 18
447 4z m2211 -1774 c54 -25 111 -82 121 -121 9 -35 -12 -87 -62 -155 -67 -92
-105 -112 -217 -117 -50 -2 -98 0 -105 5 -11 8 -7 38 23 168 45 198 52 221 73
234 31 18 114 11 167 -14z"/>
<path d="M2315 3450 c-74 -36 -119 -135 -96 -210 23 -76 100 -136 187 -146
163 -18 293 229 174 330 -59 49 -192 63 -265 26z"/>
<path d="M440 1920 l0 -60 110 0 c60 0 120 -5 133 -11 31 -14 38 -29 102 -224
73 -220 168 -482 193 -531 33 -65 69 -101 117 -120 39 -14 95 -17 447 -18
l403 -1 3 67 3 68 -402 2 -402 3 -10 28 c-5 16 -7 30 -5 32 2 3 175 9 384 15
352 10 380 12 395 29 9 11 37 93 64 183 26 89 59 192 72 227 32 85 55 188 48
212 -4 11 -21 22 -43 28 -20 5 -253 12 -517 15 -264 4 -539 9 -612 13 l-132 6
-3 36 c-3 31 -8 38 -38 48 -20 7 -94 12 -172 12 l-138 1 0 -60z"/>
<path d="M1040 794 c-81 -35 -123 -100 -124 -189 0 -111 61 -183 163 -193 101
-9 180 43 207 136 48 162 -99 310 -246 246z"/>
<path d="M1615 781 c-95 -44 -128 -134 -90 -242 19 -54 49 -86 100 -110 90
-42 203 -10 241 68 26 54 31 170 9 216 -35 75 -170 110 -260 68z"/>
</g>
</svg>
